<mxfile host="app.diagrams.net" modified="2024-03-09T19:21:11.637Z" agent="Mozilla/5.0 (Windows NT 10.0; Win64; x64) AppleWebKit/537.36 (KHTML, like Gecko) Chrome/122.0.0.0 Safari/537.36" etag="CiBEKcmytM7TREwrjcnM" version="24.0.2" type="device">
  <diagram name="PÃ¡gina-1" id="MAjijHT8E28SQv_-nr16">
    <mxGraphModel dx="913" dy="484" grid="1" gridSize="10" guides="1" tooltips="1" connect="1" arrows="1" fold="1" page="1" pageScale="1" pageWidth="827" pageHeight="1169" math="0" shadow="0">
      <root>
        <mxCell id="0" />
        <mxCell id="1" parent="0" />
        <mxCell id="MR89OZJ_qYjQ4y39Glq6-5" value="" style="edgeStyle=orthogonalEdgeStyle;rounded=0;orthogonalLoop=1;jettySize=auto;html=1;" edge="1" parent="1" source="MR89OZJ_qYjQ4y39Glq6-1" target="MR89OZJ_qYjQ4y39Glq6-2">
          <mxGeometry relative="1" as="geometry" />
        </mxCell>
        <mxCell id="MR89OZJ_qYjQ4y39Glq6-8" value="" style="edgeStyle=orthogonalEdgeStyle;rounded=0;orthogonalLoop=1;jettySize=auto;html=1;" edge="1" parent="1" source="MR89OZJ_qYjQ4y39Glq6-1" target="MR89OZJ_qYjQ4y39Glq6-3">
          <mxGeometry relative="1" as="geometry" />
        </mxCell>
        <mxCell id="MR89OZJ_qYjQ4y39Glq6-1" value="1" style="ellipse;whiteSpace=wrap;html=1;aspect=fixed;" vertex="1" parent="1">
          <mxGeometry x="200" y="160" width="40" height="40" as="geometry" />
        </mxCell>
        <mxCell id="MR89OZJ_qYjQ4y39Glq6-6" value="" style="edgeStyle=orthogonalEdgeStyle;rounded=0;orthogonalLoop=1;jettySize=auto;html=1;" edge="1" parent="1" source="MR89OZJ_qYjQ4y39Glq6-2" target="MR89OZJ_qYjQ4y39Glq6-4">
          <mxGeometry relative="1" as="geometry" />
        </mxCell>
        <mxCell id="MR89OZJ_qYjQ4y39Glq6-2" value="2" style="ellipse;whiteSpace=wrap;html=1;aspect=fixed;" vertex="1" parent="1">
          <mxGeometry x="280" y="160" width="40" height="40" as="geometry" />
        </mxCell>
        <mxCell id="MR89OZJ_qYjQ4y39Glq6-3" value="4" style="ellipse;whiteSpace=wrap;html=1;aspect=fixed;" vertex="1" parent="1">
          <mxGeometry x="200" y="240" width="40" height="40" as="geometry" />
        </mxCell>
        <mxCell id="MR89OZJ_qYjQ4y39Glq6-7" value="" style="edgeStyle=orthogonalEdgeStyle;rounded=0;orthogonalLoop=1;jettySize=auto;html=1;" edge="1" parent="1" source="MR89OZJ_qYjQ4y39Glq6-4" target="MR89OZJ_qYjQ4y39Glq6-3">
          <mxGeometry relative="1" as="geometry" />
        </mxCell>
        <mxCell id="MR89OZJ_qYjQ4y39Glq6-4" value="3" style="ellipse;whiteSpace=wrap;html=1;aspect=fixed;" vertex="1" parent="1">
          <mxGeometry x="280" y="240" width="40" height="40" as="geometry" />
        </mxCell>
        <mxCell id="MR89OZJ_qYjQ4y39Glq6-10" value="" style="endArrow=classic;html=1;rounded=0;startArrow=none;startFill=0;endFill=1;" edge="1" parent="1" source="MR89OZJ_qYjQ4y39Glq6-4" target="MR89OZJ_qYjQ4y39Glq6-1">
          <mxGeometry width="50" height="50" relative="1" as="geometry">
            <mxPoint x="390" y="320" as="sourcePoint" />
            <mxPoint x="440" y="270" as="targetPoint" />
          </mxGeometry>
        </mxCell>
        <mxCell id="MR89OZJ_qYjQ4y39Glq6-11" value="" style="endArrow=none;html=1;rounded=0;startArrow=classic;startFill=1;" edge="1" parent="1" source="MR89OZJ_qYjQ4y39Glq6-2" target="MR89OZJ_qYjQ4y39Glq6-2">
          <mxGeometry width="50" height="50" relative="1" as="geometry">
            <mxPoint x="390" y="320" as="sourcePoint" />
            <mxPoint x="440" y="270" as="targetPoint" />
          </mxGeometry>
        </mxCell>
        <mxCell id="MR89OZJ_qYjQ4y39Glq6-13" value="" style="edgeStyle=orthogonalEdgeStyle;rounded=0;orthogonalLoop=1;jettySize=auto;html=1;" edge="1" parent="1" source="MR89OZJ_qYjQ4y39Glq6-14" target="MR89OZJ_qYjQ4y39Glq6-17">
          <mxGeometry relative="1" as="geometry" />
        </mxCell>
        <mxCell id="MR89OZJ_qYjQ4y39Glq6-14" value="1" style="ellipse;whiteSpace=wrap;html=1;aspect=fixed;" vertex="1" parent="1">
          <mxGeometry x="200" y="320" width="40" height="40" as="geometry" />
        </mxCell>
        <mxCell id="MR89OZJ_qYjQ4y39Glq6-16" value="2" style="ellipse;whiteSpace=wrap;html=1;aspect=fixed;" vertex="1" parent="1">
          <mxGeometry x="280" y="320" width="40" height="40" as="geometry" />
        </mxCell>
        <mxCell id="MR89OZJ_qYjQ4y39Glq6-17" value="4" style="ellipse;whiteSpace=wrap;html=1;aspect=fixed;" vertex="1" parent="1">
          <mxGeometry x="200" y="400" width="40" height="40" as="geometry" />
        </mxCell>
        <mxCell id="MR89OZJ_qYjQ4y39Glq6-18" value="" style="edgeStyle=orthogonalEdgeStyle;rounded=0;orthogonalLoop=1;jettySize=auto;html=1;" edge="1" parent="1" source="MR89OZJ_qYjQ4y39Glq6-19" target="MR89OZJ_qYjQ4y39Glq6-17">
          <mxGeometry relative="1" as="geometry" />
        </mxCell>
        <mxCell id="MR89OZJ_qYjQ4y39Glq6-19" value="3" style="ellipse;whiteSpace=wrap;html=1;aspect=fixed;" vertex="1" parent="1">
          <mxGeometry x="280" y="400" width="40" height="40" as="geometry" />
        </mxCell>
        <mxCell id="MR89OZJ_qYjQ4y39Glq6-20" value="" style="endArrow=classic;html=1;rounded=0;startArrow=none;startFill=0;endFill=1;" edge="1" parent="1" source="MR89OZJ_qYjQ4y39Glq6-19" target="MR89OZJ_qYjQ4y39Glq6-14">
          <mxGeometry width="50" height="50" relative="1" as="geometry">
            <mxPoint x="390" y="480" as="sourcePoint" />
            <mxPoint x="440" y="430" as="targetPoint" />
            <Array as="points" />
          </mxGeometry>
        </mxCell>
        <mxCell id="MR89OZJ_qYjQ4y39Glq6-21" value="" style="endArrow=none;html=1;rounded=0;startArrow=classic;startFill=1;" edge="1" parent="1" source="MR89OZJ_qYjQ4y39Glq6-16" target="MR89OZJ_qYjQ4y39Glq6-16">
          <mxGeometry width="50" height="50" relative="1" as="geometry">
            <mxPoint x="390" y="480" as="sourcePoint" />
            <mxPoint x="440" y="430" as="targetPoint" />
          </mxGeometry>
        </mxCell>
        <mxCell id="MR89OZJ_qYjQ4y39Glq6-22" value="" style="endArrow=classic;html=1;rounded=0;" edge="1" parent="1" source="MR89OZJ_qYjQ4y39Glq6-14" target="MR89OZJ_qYjQ4y39Glq6-19">
          <mxGeometry width="50" height="50" relative="1" as="geometry">
            <mxPoint x="320" y="430" as="sourcePoint" />
            <mxPoint x="370" y="380" as="targetPoint" />
            <Array as="points">
              <mxPoint x="270" y="360" />
            </Array>
          </mxGeometry>
        </mxCell>
        <mxCell id="MR89OZJ_qYjQ4y39Glq6-23" value="" style="endArrow=classic;html=1;rounded=0;" edge="1" parent="1" source="MR89OZJ_qYjQ4y39Glq6-16" target="MR89OZJ_qYjQ4y39Glq6-14">
          <mxGeometry width="50" height="50" relative="1" as="geometry">
            <mxPoint x="320" y="430" as="sourcePoint" />
            <mxPoint x="370" y="380" as="targetPoint" />
            <Array as="points">
              <mxPoint x="260" y="310" />
            </Array>
          </mxGeometry>
        </mxCell>
        <mxCell id="MR89OZJ_qYjQ4y39Glq6-25" value="" style="endArrow=classic;html=1;rounded=0;" edge="1" parent="1" source="MR89OZJ_qYjQ4y39Glq6-14" target="MR89OZJ_qYjQ4y39Glq6-16">
          <mxGeometry width="50" height="50" relative="1" as="geometry">
            <mxPoint x="240" y="370" as="sourcePoint" />
            <mxPoint x="290" y="320" as="targetPoint" />
            <Array as="points" />
          </mxGeometry>
        </mxCell>
        <mxCell id="MR89OZJ_qYjQ4y39Glq6-26" value="" style="endArrow=classic;html=1;rounded=0;" edge="1" parent="1" source="MR89OZJ_qYjQ4y39Glq6-16" target="MR89OZJ_qYjQ4y39Glq6-17">
          <mxGeometry width="50" height="50" relative="1" as="geometry">
            <mxPoint x="250" y="420" as="sourcePoint" />
            <mxPoint x="300" y="370" as="targetPoint" />
          </mxGeometry>
        </mxCell>
        <mxCell id="MR89OZJ_qYjQ4y39Glq6-27" value="" style="endArrow=classic;html=1;rounded=0;" edge="1" parent="1" source="MR89OZJ_qYjQ4y39Glq6-19" target="MR89OZJ_qYjQ4y39Glq6-16">
          <mxGeometry width="50" height="50" relative="1" as="geometry">
            <mxPoint x="260" y="390" as="sourcePoint" />
            <mxPoint x="310" y="340" as="targetPoint" />
            <Array as="points">
              <mxPoint x="330" y="380" />
            </Array>
          </mxGeometry>
        </mxCell>
        <mxCell id="MR89OZJ_qYjQ4y39Glq6-28" value="" style="endArrow=classic;html=1;rounded=0;" edge="1" parent="1" source="MR89OZJ_qYjQ4y39Glq6-16" target="MR89OZJ_qYjQ4y39Glq6-19">
          <mxGeometry width="50" height="50" relative="1" as="geometry">
            <mxPoint x="260" y="390" as="sourcePoint" />
            <mxPoint x="310" y="340" as="targetPoint" />
            <Array as="points" />
          </mxGeometry>
        </mxCell>
        <mxCell id="MR89OZJ_qYjQ4y39Glq6-31" value="1" style="ellipse;whiteSpace=wrap;html=1;aspect=fixed;" vertex="1" parent="1">
          <mxGeometry x="520" y="160" width="40" height="40" as="geometry" />
        </mxCell>
        <mxCell id="MR89OZJ_qYjQ4y39Glq6-33" value="2" style="ellipse;whiteSpace=wrap;html=1;aspect=fixed;" vertex="1" parent="1">
          <mxGeometry x="600" y="160" width="40" height="40" as="geometry" />
        </mxCell>
        <mxCell id="MR89OZJ_qYjQ4y39Glq6-34" value="5" style="ellipse;whiteSpace=wrap;html=1;aspect=fixed;" vertex="1" parent="1">
          <mxGeometry x="520" y="280" width="40" height="40" as="geometry" />
        </mxCell>
        <mxCell id="MR89OZJ_qYjQ4y39Glq6-36" value="3" style="ellipse;whiteSpace=wrap;html=1;aspect=fixed;" vertex="1" parent="1">
          <mxGeometry x="640" y="240" width="40" height="40" as="geometry" />
        </mxCell>
        <mxCell id="MR89OZJ_qYjQ4y39Glq6-39" value="4" style="ellipse;whiteSpace=wrap;html=1;aspect=fixed;" vertex="1" parent="1">
          <mxGeometry x="600" y="320" width="40" height="40" as="geometry" />
        </mxCell>
        <mxCell id="MR89OZJ_qYjQ4y39Glq6-41" value="" style="endArrow=classic;html=1;rounded=0;" edge="1" parent="1" source="MR89OZJ_qYjQ4y39Glq6-31" target="MR89OZJ_qYjQ4y39Glq6-33">
          <mxGeometry width="50" height="50" relative="1" as="geometry">
            <mxPoint x="440" y="310" as="sourcePoint" />
            <mxPoint x="490" y="260" as="targetPoint" />
          </mxGeometry>
        </mxCell>
        <mxCell id="MR89OZJ_qYjQ4y39Glq6-42" value="" style="endArrow=classic;html=1;rounded=0;" edge="1" parent="1" source="MR89OZJ_qYjQ4y39Glq6-33" target="MR89OZJ_qYjQ4y39Glq6-36">
          <mxGeometry width="50" height="50" relative="1" as="geometry">
            <mxPoint x="570" y="190" as="sourcePoint" />
            <mxPoint x="610" y="190" as="targetPoint" />
          </mxGeometry>
        </mxCell>
        <mxCell id="MR89OZJ_qYjQ4y39Glq6-43" value="" style="endArrow=classic;html=1;rounded=0;" edge="1" parent="1" source="MR89OZJ_qYjQ4y39Glq6-31" target="MR89OZJ_qYjQ4y39Glq6-36">
          <mxGeometry width="50" height="50" relative="1" as="geometry">
            <mxPoint x="580" y="200" as="sourcePoint" />
            <mxPoint x="620" y="200" as="targetPoint" />
          </mxGeometry>
        </mxCell>
        <mxCell id="MR89OZJ_qYjQ4y39Glq6-44" value="" style="endArrow=classic;html=1;rounded=0;" edge="1" parent="1" source="MR89OZJ_qYjQ4y39Glq6-36" target="MR89OZJ_qYjQ4y39Glq6-34">
          <mxGeometry width="50" height="50" relative="1" as="geometry">
            <mxPoint x="590" y="210" as="sourcePoint" />
            <mxPoint x="630" y="210" as="targetPoint" />
          </mxGeometry>
        </mxCell>
        <mxCell id="MR89OZJ_qYjQ4y39Glq6-45" value="" style="endArrow=classic;html=1;rounded=0;" edge="1" parent="1" source="MR89OZJ_qYjQ4y39Glq6-39" target="MR89OZJ_qYjQ4y39Glq6-34">
          <mxGeometry width="50" height="50" relative="1" as="geometry">
            <mxPoint x="600" y="220" as="sourcePoint" />
            <mxPoint x="640" y="220" as="targetPoint" />
          </mxGeometry>
        </mxCell>
        <mxCell id="MR89OZJ_qYjQ4y39Glq6-46" value="" style="endArrow=classic;html=1;rounded=0;" edge="1" parent="1" source="MR89OZJ_qYjQ4y39Glq6-36" target="MR89OZJ_qYjQ4y39Glq6-39">
          <mxGeometry width="50" height="50" relative="1" as="geometry">
            <mxPoint x="610" y="230" as="sourcePoint" />
            <mxPoint x="650" y="230" as="targetPoint" />
          </mxGeometry>
        </mxCell>
        <mxCell id="MR89OZJ_qYjQ4y39Glq6-47" value="1" style="ellipse;whiteSpace=wrap;html=1;aspect=fixed;" vertex="1" parent="1">
          <mxGeometry x="520" y="400" width="40" height="40" as="geometry" />
        </mxCell>
        <mxCell id="MR89OZJ_qYjQ4y39Glq6-48" value="2" style="ellipse;whiteSpace=wrap;html=1;aspect=fixed;" vertex="1" parent="1">
          <mxGeometry x="600" y="400" width="40" height="40" as="geometry" />
        </mxCell>
        <mxCell id="MR89OZJ_qYjQ4y39Glq6-49" value="5" style="ellipse;whiteSpace=wrap;html=1;aspect=fixed;" vertex="1" parent="1">
          <mxGeometry x="520" y="520" width="40" height="40" as="geometry" />
        </mxCell>
        <mxCell id="MR89OZJ_qYjQ4y39Glq6-50" value="3" style="ellipse;whiteSpace=wrap;html=1;aspect=fixed;" vertex="1" parent="1">
          <mxGeometry x="640" y="480" width="40" height="40" as="geometry" />
        </mxCell>
        <mxCell id="MR89OZJ_qYjQ4y39Glq6-51" value="4" style="ellipse;whiteSpace=wrap;html=1;aspect=fixed;" vertex="1" parent="1">
          <mxGeometry x="600" y="560" width="40" height="40" as="geometry" />
        </mxCell>
        <mxCell id="MR89OZJ_qYjQ4y39Glq6-52" value="" style="endArrow=classic;html=1;rounded=0;" edge="1" parent="1" source="MR89OZJ_qYjQ4y39Glq6-47" target="MR89OZJ_qYjQ4y39Glq6-48">
          <mxGeometry width="50" height="50" relative="1" as="geometry">
            <mxPoint x="440" y="550" as="sourcePoint" />
            <mxPoint x="490" y="500" as="targetPoint" />
          </mxGeometry>
        </mxCell>
        <mxCell id="MR89OZJ_qYjQ4y39Glq6-53" value="" style="endArrow=classic;html=1;rounded=0;" edge="1" parent="1" source="MR89OZJ_qYjQ4y39Glq6-48" target="MR89OZJ_qYjQ4y39Glq6-50">
          <mxGeometry width="50" height="50" relative="1" as="geometry">
            <mxPoint x="570" y="430" as="sourcePoint" />
            <mxPoint x="610" y="430" as="targetPoint" />
          </mxGeometry>
        </mxCell>
        <mxCell id="MR89OZJ_qYjQ4y39Glq6-54" value="" style="endArrow=classic;html=1;rounded=0;" edge="1" parent="1" source="MR89OZJ_qYjQ4y39Glq6-47" target="MR89OZJ_qYjQ4y39Glq6-50">
          <mxGeometry width="50" height="50" relative="1" as="geometry">
            <mxPoint x="580" y="440" as="sourcePoint" />
            <mxPoint x="620" y="440" as="targetPoint" />
          </mxGeometry>
        </mxCell>
        <mxCell id="MR89OZJ_qYjQ4y39Glq6-55" value="" style="endArrow=classic;html=1;rounded=0;" edge="1" parent="1" source="MR89OZJ_qYjQ4y39Glq6-50" target="MR89OZJ_qYjQ4y39Glq6-49">
          <mxGeometry width="50" height="50" relative="1" as="geometry">
            <mxPoint x="590" y="450" as="sourcePoint" />
            <mxPoint x="630" y="450" as="targetPoint" />
          </mxGeometry>
        </mxCell>
        <mxCell id="MR89OZJ_qYjQ4y39Glq6-56" value="" style="endArrow=classic;html=1;rounded=0;" edge="1" parent="1" source="MR89OZJ_qYjQ4y39Glq6-51" target="MR89OZJ_qYjQ4y39Glq6-49">
          <mxGeometry width="50" height="50" relative="1" as="geometry">
            <mxPoint x="600" y="460" as="sourcePoint" />
            <mxPoint x="640" y="460" as="targetPoint" />
          </mxGeometry>
        </mxCell>
        <mxCell id="MR89OZJ_qYjQ4y39Glq6-57" value="" style="endArrow=classic;html=1;rounded=0;" edge="1" parent="1" source="MR89OZJ_qYjQ4y39Glq6-50" target="MR89OZJ_qYjQ4y39Glq6-51">
          <mxGeometry width="50" height="50" relative="1" as="geometry">
            <mxPoint x="610" y="470" as="sourcePoint" />
            <mxPoint x="650" y="470" as="targetPoint" />
          </mxGeometry>
        </mxCell>
        <mxCell id="MR89OZJ_qYjQ4y39Glq6-58" value="" style="endArrow=classic;html=1;rounded=0;" edge="1" parent="1" source="MR89OZJ_qYjQ4y39Glq6-47" target="MR89OZJ_qYjQ4y39Glq6-49">
          <mxGeometry width="50" height="50" relative="1" as="geometry">
            <mxPoint x="520" y="520" as="sourcePoint" />
            <mxPoint x="570" y="470" as="targetPoint" />
          </mxGeometry>
        </mxCell>
        <mxCell id="MR89OZJ_qYjQ4y39Glq6-59" value="" style="endArrow=classic;html=1;rounded=0;" edge="1" parent="1" source="MR89OZJ_qYjQ4y39Glq6-47" target="MR89OZJ_qYjQ4y39Glq6-51">
          <mxGeometry width="50" height="50" relative="1" as="geometry">
            <mxPoint x="550" y="450" as="sourcePoint" />
            <mxPoint x="550" y="530" as="targetPoint" />
          </mxGeometry>
        </mxCell>
        <mxCell id="MR89OZJ_qYjQ4y39Glq6-60" value="" style="endArrow=classic;html=1;rounded=0;" edge="1" parent="1" source="MR89OZJ_qYjQ4y39Glq6-48" target="MR89OZJ_qYjQ4y39Glq6-51">
          <mxGeometry width="50" height="50" relative="1" as="geometry">
            <mxPoint x="560" y="460" as="sourcePoint" />
            <mxPoint x="560" y="540" as="targetPoint" />
          </mxGeometry>
        </mxCell>
        <mxCell id="MR89OZJ_qYjQ4y39Glq6-61" value="" style="endArrow=classic;html=1;rounded=0;" edge="1" parent="1" source="MR89OZJ_qYjQ4y39Glq6-48" target="MR89OZJ_qYjQ4y39Glq6-49">
          <mxGeometry width="50" height="50" relative="1" as="geometry">
            <mxPoint x="570" y="470" as="sourcePoint" />
            <mxPoint x="570" y="550" as="targetPoint" />
          </mxGeometry>
        </mxCell>
      </root>
    </mxGraphModel>
  </diagram>
</mxfile>
